HIERARCHY
ROOT hip
{
  OFFSET 0 0 0
  CHANNELS 6 Xposition Yposition Zposition Zrotation Yrotation Xrotation
  JOINT abdomen
  {
    OFFSET 0 20.6881 -0.73152
    CHANNELS 3 Zrotation Xrotation Yrotation
    JOINT chest
    {
      OFFSET 0 11.7043 -0.48768
      CHANNELS 3 Zrotation Xrotation Yrotation
      JOINT neck
      {
        OFFSET 0 22.1894 -2.19456
        CHANNELS 3 Zrotation Xrotation Yrotation
        JOINT head
        {
          OFFSET -0.24384 7.07133 1.2192
          CHANNELS 3 Zrotation Xrotation Yrotation
          JOINT leftEye
          {
            OFFSET 4.14528 8.04674 8.04672
            CHANNELS 3 Zrotation Xrotation Yrotation
            End Site
            {
              OFFSET 1 0 0
            }
          }
          JOINT rightEye
          {
            OFFSET -3.6576 8.04674 8.04672
            CHANNELS 3 Zrotation Xrotation Yrotation
            End Site
            {
              OFFSET 1 0 0
            }
          }
        }
      }
      JOINT rCollar
      {
        OFFSET -2.68224 19.2634 -4.8768
        CHANNELS 3 Zrotation Xrotation Yrotation
        JOINT rShldr
        {
          OFFSET -8.77824 -1.95073 1.46304
          CHANNELS 3 Zrotation Xrotation Yrotation
          JOINT rForeArm
          {
            OFFSET -28.1742 -1.7115 0.48768
            CHANNELS 3 Zrotation Xrotation Yrotation
            JOINT rHand
            {
              OFFSET -22.5879 0.773209 7.07136
              CHANNELS 3 Zrotation Xrotation Yrotation
              JOINT rThumb1
              {
                OFFSET -1.2192 -0.487915 3.41376
                CHANNELS 3 Zrotation Xrotation Yrotation
                JOINT rThumb2
                {
                  OFFSET -3.37035 -0.52449 3.41376
                  CHANNELS 3 Zrotation Xrotation Yrotation
                  End Site
                  {
                    OFFSET -1.78271 -1.18214 1.43049
                  }
                }
              }
              JOINT rIndex1
              {
                OFFSET -7.75947 0.938293 5.60832
                CHANNELS 3 Zrotation Xrotation Yrotation
                JOINT rIndex2
                {
                  OFFSET -2.54057 -0.884171 1.56538
                  CHANNELS 3 Zrotation Xrotation Yrotation
                  End Site
                  {
                    OFFSET -1.62519 -0.234802 1.16502
                  }
                }
              }
              JOINT rMid1
              {
                OFFSET -8.24714 1.18213 3.41376
                CHANNELS 3 Zrotation Xrotation Yrotation
                JOINT rMid2
                {
                  OFFSET -3.10165 -0.590103 1.0647
                  CHANNELS 3 Zrotation Xrotation Yrotation
                  End Site
                  {
                    OFFSET -2.48547 -0.328903 0.83742
                  }
                }
              }
              JOINT rRing1
              {
                OFFSET -8.82822 0.546677 1.51678
                CHANNELS 3 Zrotation Xrotation Yrotation
                JOINT rRing2
                {
                  OFFSET -2.60934 -0.819778 -0.0198488
                  CHANNELS 3 Zrotation Xrotation Yrotation
                  End Site
                  {
                    OFFSET -2.33842 -0.294052 0.168128
                  }
                }
              }
              JOINT rPinky1
              {
                OFFSET -8.27202 -0.0477905 -0.4584
                CHANNELS 3 Zrotation Xrotation Yrotation
                JOINT rPinky2
                {
                  OFFSET -1.82734 -0.647385 -0.700984
                  CHANNELS 3 Zrotation Xrotation Yrotation
                  End Site
                  {
                    OFFSET -1.69225 -0.51767 -0.607171
                  }
                }
              }
            }
          }
        }
      }
      JOINT lCollar
      {
        OFFSET 2.68224 19.2634 -4.8768
        CHANNELS 3 Zrotation Xrotation Yrotation
        JOINT lShldr
        {
          OFFSET 8.77824 -1.95073 1.46304
          CHANNELS 3 Zrotation Xrotation Yrotation
          JOINT lForeArm
          {
            OFFSET 28.1742 -1.7115 0.48768
            CHANNELS 3 Zrotation Xrotation Yrotation
            JOINT lHand
            {
              OFFSET 22.5879 0.773209 7.07136
              CHANNELS 3 Zrotation Xrotation Yrotation
              JOINT lThumb1
              {
                OFFSET 1.2192 -0.487915 3.41376
                CHANNELS 3 Zrotation Xrotation Yrotation
                JOINT lThumb2
                {
                  OFFSET 3.37035 -0.52449 3.41376
                  CHANNELS 3 Zrotation Xrotation Yrotation
                  End Site
                  {
                    OFFSET 1.78271 -1.18214 1.43049
                  }
                }
              }
              JOINT lIndex1
              {
                OFFSET 7.75947 0.938293 5.60832
                CHANNELS 3 Zrotation Xrotation Yrotation
                JOINT lIndex2
                {
                  OFFSET 2.54057 -0.884171 1.56538
                  CHANNELS 3 Zrotation Xrotation Yrotation
                  End Site
                  {
                    OFFSET 1.62519 -0.234802 1.16502
                  }
                }
              }
              JOINT lMid1
              {
                OFFSET 8.24714 1.18213 3.41376
                CHANNELS 3 Zrotation Xrotation Yrotation
                JOINT lMid2
                {
                  OFFSET 3.10165 -0.590103 1.0647
                  CHANNELS 3 Zrotation Xrotation Yrotation
                  End Site
                  {
                    OFFSET 2.48547 -0.328903 0.83742
                  }
                }
              }
              JOINT lRing1
              {
                OFFSET 8.82822 0.546677 1.51678
                CHANNELS 3 Zrotation Xrotation Yrotation
                JOINT lRing2
                {
                  OFFSET 2.60934 -0.819778 -0.0198488
                  CHANNELS 3 Zrotation Xrotation Yrotation
                  End Site
                  {
                    OFFSET 2.33842 -0.294052 0.168128
                  }
                }
              }
              JOINT lPinky1
              {
                OFFSET 8.27202 -0.0477905 -0.4584
                CHANNELS 3 Zrotation Xrotation Yrotation
                JOINT lPinky2
                {
                  OFFSET 1.82734 -0.647385 -0.700984
                  CHANNELS 3 Zrotation Xrotation Yrotation
                  End Site
                  {
                    OFFSET 1.69225 -0.51767 -0.607171
                  }
                }
              }
            }
          }
        }
      }
    }
  }
  JOINT rButtock
  {
    OFFSET -8.77824 4.35084 1.2192
    CHANNELS 3 Zrotation Xrotation Yrotation
    JOINT rThigh
    {
      OFFSET 0 -1.70687 -2.19456
      CHANNELS 3 Zrotation Xrotation Yrotation
      JOINT rShin
      {
        OFFSET 0 -36.8199 0.73152
        CHANNELS 3 Zrotation Xrotation Yrotation
        JOINT rFoot
        {
          OFFSET 0.73152 -45.1104 -5.12064
          CHANNELS 3 Zrotation Xrotation Yrotation
          End Site
          {
            OFFSET -1.1221 -3.69964 12.103
          }
        }
      }
    }
  }
  JOINT lButtock
  {
    OFFSET 8.77824 4.35084 1.2192
    CHANNELS 3 Zrotation Xrotation Yrotation
    JOINT lThigh
    {
      OFFSET 0 -1.70687 -2.19456
      CHANNELS 3 Zrotation Xrotation Yrotation
      JOINT lShin
      {
        OFFSET 0 -36.8199 0.73152
        CHANNELS 3 Zrotation Xrotation Yrotation
        JOINT lFoot
        {
          OFFSET -0.73152 -45.1104 -5.12064
          CHANNELS 3 Zrotation Xrotation Yrotation
          End Site
          {
            OFFSET 1.1221 -3.69964 12.103
          }
        }
      }
    }
  }
}
MOTION
Frames:	8
Frame Time:	0.00833333
-1.02124 84.9173 -165.218 0.0 0.0 0.0 -0.140626 -0.000295012 -0.00400527 -0.038767 -0.000394544 -0.00671565 -5.11183e-17 0.0 -2.32951e-17 -1.77043e-16 3.18055e-15 -7.14382e-17 -0.0 0.0 0.0 -0.0 0.0 0.0 -1.32703e-18 -3.88251e-19 1.49089e-16 1.56999e-15 -4.65902e-16 5.96354e-16 -7.00716e-15 3.57812e-15 0.0 -1.09592e-13 -1.73937e-16 -6.36111e-14 -2.55177e-13 1.24701e-14 -1.11319e-13 -4.42495e-13 1.90833e-14 -1.9799e-13 -2.49674e-13 1.35174e-14 -1.145e-13 7.73091 5.47488 0.417314 -2.5509e-13 1.28216e-14 -1.17681e-13 2.90554 0.965183 0.102902 -2.45959e-13 1.28216e-14 -1.12115e-13 10.2786 0.731801 0.0259123 -2.58221e-13 1.43125e-14 -1.04958e-13 2.22167 -0.733487 -0.20892 -9.80676e-17 -3.88251e-19 -1.49089e-16 -2.36212e-15 -2.79541e-16 -9.93923e-16 -1.06847e-14 -2.98177e-15 -1.27222e-14 -1.08071e-13 3.50358e-15 -3.18055e-14 -2.56333e-13 5.50715e-15 -1.11319e-13 -4.32158e-13 1.27222e-14 -1.94809e-13 -2.59215e-13 4.77083e-15 -1.11319e-13 -7.73091 5.47488 -0.417314 -2.57128e-13 5.56597e-15 -1.145e-13 -2.90554 0.965183 -0.102902 -2.65806e-13 5.76476e-15 -1.1291e-13 -10.2786 0.731801 -0.0259123 -2.50071e-13 7.95139e-15 -1.24042e-13 -2.22167 -0.733487 0.20892 -2.03217e-16 0.0 -3.88251e-19 0.415459 -2.89234 -0.0363696 -0.00657584 -0.313962 -0.0578458 -0.521692 3.20536 0.125419 2.03217e-16 0.0 3.88251e-19 -0.629346 -3.43714 0.0497309 0.00497784 0.672916 0.0432301 0.523136 2.76331 -0.11651
-0.574644 83.6441 -165.594 1.5296 1.1435 0.1576 -0.424085 1.90119 -2.09081 0.465081 -3.39264 -0.564245 2.23539 -1.80471 0.0995009 -3.79235 4.47052 -0.170964 -0.0 0.0 0.0 -0.0 0.0 0.0 1.58706e-14 6.64646e-15 2.66767e-15 21.7809 1.27274 -2.17422 -2.49388 -0.923383 4.09349 0.0101302 2.25921 0.316652 -3.19596e-11 -8.93962e-11 -1.19786e-10 -5.55291e-11 -1.54843e-10 -2.06948e-10 -3.19523e-11 -8.93959e-11 -1.1979e-10 7.73091 5.47488 0.417314 -3.19596e-11 -8.93954e-11 -1.19791e-10 2.90554 0.965183 0.102902 -3.19522e-11 -8.93956e-11 -1.19787e-10 10.2786 0.731801 0.0259123 -3.19635e-11 -8.93942e-11 -1.19778e-10 2.22167 -0.733487 -0.20892 1.58203e-14 6.64669e-15 2.42502e-15 -22.0797 4.35073 2.72347 4.16478 -1.88141 -6.51697 -0.0117639 -2.40678 0.337174 -2.44922e-10 -4.35543e-11 -9.82103e-12 -4.23269e-10 -7.44986e-11 -1.84602e-11 -2.44924e-10 -4.35534e-11 -9.82212e-12 -7.73091 5.47488 -0.417314 -2.44922e-10 -4.35545e-11 -9.82428e-12 -2.90554 0.965183 -0.102902 -2.44929e-10 -4.35544e-11 -9.82313e-12 -10.2786 0.731801 -0.0259123 -2.44914e-10 -4.35522e-11 -9.83383e-12 -2.22167 -0.733487 0.20892 -2.03217e-16 0.0 -3.88251e-19 -1.25842 -5.85631 -1.33908 0.0223717 8.84998 0.111888 -1.19151 -0.67183 -6.2507 2.03217e-16 0.0 3.88251e-19 -0.331483 -5.42815 -0.671021 -0.00728042 7.72365 -0.0726498 0.763171 -0.183485 3.47027
-0.56218 83.6306 -165.414 1.4959 1.3252 -0.2952 -0.576562 3.91065 -4.28858 0.927436 -6.97147 -1.15558 4.60214 -3.71259 0.197452 -7.76756 9.19183 -0.369978 -0.0 0.0 0.0 -0.0 0.0 0.0 3.35994e-14 1.44114e-14 6.35179e-15 44.9081 2.55434 -4.461 -4.97726 -1.87856 8.4081 -0.00665838 4.68699 0.658635 -7.60398e-11 -1.67685e-10 -2.46263e-10 -1.32024e-10 -2.90469e-10 -4.25372e-10 -7.60304e-11 -1.67685e-10 -2.46267e-10 7.73091 5.47488 0.417314 -7.60398e-11 -1.67684e-10 -2.46267e-10 2.90554 0.965183 0.102902 -7.60343e-11 -1.67684e-10 -2.46264e-10 10.2786 0.731801 0.0259123 -7.60445e-11 -1.67683e-10 -2.46254e-10 2.22167 -0.733487 -0.20892 3.35982e-14 1.44119e-14 6.16854e-15 -45.867 8.91186 5.64067 8.09706 -3.7832 -13.4159 0.00669326 -4.94501 0.694784 -5.17355e-10 -1.1193e-10 -1.06153e-11 -8.94186e-10 -1.92013e-10 -2.14336e-11 -5.17357e-10 -1.11928e-10 -1.06177e-11 -7.73091 5.47488 -0.417314 -5.17355e-10 -1.11931e-10 -1.06187e-11 -2.90554 0.965183 -0.102902 -5.1736e-10 -1.11931e-10 -1.0618e-11 -10.2786 0.731801 -0.0259123 -5.17346e-10 -1.11929e-10 -1.06282e-11 -2.22167 -0.733487 0.20892 -2.03217e-16 0.0 -3.88251e-19 -3.17865 -8.97819 -2.73431 -0.00874713 18.5386 0.304328 -2.83082 -4.65388 -13.0294 2.03217e-16 0.0 3.88251e-19 -0.075673 -7.5255 -1.44559 0.0116885 15.1787 -0.200846 1.41847 -3.27249 7.28107
-0.598245 83.6163 -165.245 1.3342 1.4464 -0.7358 -0.574651 5.67381 -6.29192 1.27205 -10.1732 -1.70312 6.72505 -5.41406 0.299692 -11.2951 13.4111 -0.525668 -0.0 0.0 0.0 -0.0 0.0 0.0 4.76144e-14 1.99401e-14 7.70485e-15 65.6323 3.7962 -6.53545 -7.0888 -2.71365 12.2929 -0.0449694 6.77681 0.955896 -9.53685e-11 -2.68214e-10 -3.59135e-10 -1.65702e-10 -4.64567e-10 -6.20447e-10 -9.53576e-11 -2.68215e-10 -3.5914e-10 7.73091 5.47488 0.417314 -9.53686e-11 -2.68212e-10 -3.59138e-10 2.90554 0.965183 0.102902 -9.53648e-11 -2.68212e-10 -3.59136e-10 10.2786 0.731801 0.0259123 -9.53741e-11 -2.68211e-10 -3.59126e-10 2.22167 -0.733487 -0.20892 4.7657e-14 1.99408e-14 7.57323e-15 -67.5027 12.9327 8.3604 11.2333 -5.35274 -19.6294 0.0502623 -7.21934 1.01871 -7.34252e-10 -1.30674e-10 -2.92405e-11 -1.26894e-09 -2.23521e-10 -5.4991e-11 -7.34253e-10 -1.3067e-10 -2.92437e-11 -7.73091 5.47488 -0.417314 -7.34252e-10 -1.30675e-10 -2.92439e-11 -2.90554 0.965183 -0.102902 -7.34255e-10 -1.30675e-10 -2.92436e-11 -10.2786 0.731801 -0.0259123 -7.34243e-10 -1.30673e-10 -2.92534e-11 -2.22167 -0.733487 0.20892 -2.03217e-16 0.0 -3.88251e-19 -5.01808 -11.761 -4.00789 -0.098415 27.177 0.502876 -5.08971 -7.97541 -19.1941 2.03217e-16 0.0 3.88251e-19 0.112101 -9.40488 -2.13199 0.0590113 21.8248 -0.325777 2.34779 -5.97315 10.7023
-0.681638 83.626 -165.3 1.4215 1.2818 -0.2132 -0.478643 6.84939 -7.783 1.46163 -12.4359 -2.11922 8.22732 -6.59953 0.411728 -13.7734 16.3759 -0.558401 -0.0 0.0 0.0 -0.0 0.0 0.0 5.23451e-14 1.98781e-14 3.23025e-15 80.1697 4.95658 -8.06995 -8.54062 -3.30054 15.0917 -0.0795954 8.02263 1.13501 -5.28187e-11 -4.24342e-10 -4.37994e-10 -9.23387e-11 -7.34845e-10 -7.57152e-10 -5.28075e-11 -4.24343e-10 -4.38001e-10 7.73091 5.47488 0.417314 -5.28189e-11 -4.2434e-10 -4.37997e-10 2.90554 0.965183 0.102902 -5.28164e-11 -4.24341e-10 -4.37995e-10 10.2786 0.731801 0.0259123 -5.2825e-11 -4.24339e-10 -4.37985e-10 2.22167 -0.733487 -0.20892 5.24179e-14 1.98789e-14 3.13086e-15 -82.8734 15.7134 10.4089 13.2494 -6.36442 -24.0557 0.0966995 -8.83487 1.2517 -8.1231e-10 -2.53363e-11 -9.24428e-11 -1.4033e-09 -4.00146e-11 -1.65009e-10 -8.1231e-10 -2.53315e-11 -9.2446e-11 -7.73091 5.47488 -0.417314 -8.12309e-10 -2.53372e-11 -9.2446e-11 -2.90554 0.965183 -0.102902 -8.12311e-10 -2.53374e-11 -9.2446e-11 -10.2786 0.731801 -0.0259123 -8.123e-10 -2.53351e-11 -9.24555e-11 -2.22167 -0.733487 0.20892 -2.03217e-16 0.0 -3.88251e-19 -6.36407 -13.7169 -4.92254 -0.203594 33.1906 0.667124 -7.10715 -10.1031 -23.6049 2.03217e-16 0.0 3.88251e-19 0.239194 -10.7442 -2.58142 0.111293 26.4487 -0.422031 3.1802 -7.81142 13.0802
-0.737455 83.6253 -165.266 1.404 1.2759 -0.1063 -0.367633 7.21548 -8.58243 1.48808 -13.4182 -2.34865 8.88029 -7.06928 0.571143 -14.8529 17.6139 -0.341675 -0.0 0.0 0.0 -0.0 0.0 0.0 4.25618e-14 9.90179e-15 -1.48075e-14 85.976 6.09163 -8.86414 -9.18813 -3.57698 16.3664 -0.0846756 8.07068 1.14224 1.07476e-10 -7.49601e-10 -4.89739e-10 1.84625e-10 -1.29777e-09 -8.47843e-10 1.07485e-10 -7.49601e-10 -4.89747e-10 7.73091 5.47488 0.417314 1.07475e-10 -7.49599e-10 -4.89741e-10 2.90554 0.965183 0.102902 1.07477e-10 -7.496e-10 -4.89739e-10 10.2786 0.731801 0.0259123 1.07469e-10 -7.49598e-10 -4.89729e-10 2.22167 -0.733487 -0.20892 4.26536e-14 9.9024e-15 -1.48984e-14 -89.0728 16.7882 11.4392 14.0692 -6.7892 -25.9513 0.120241 -9.53642 1.35372 -6.74798e-10 3.44287e-10 -2.6507e-10 -1.16404e-09 6.01893e-10 -4.63435e-10 -6.74799e-10 3.44291e-10 -2.65071e-10 -7.73091 5.47488 -0.417314 -6.74797e-10 3.44286e-10 -2.65072e-10 -2.90554 0.965183 -0.102902 -6.74799e-10 3.44286e-10 -2.65072e-10 -10.2786 0.731801 -0.0259123 -6.74789e-10 3.44288e-10 -2.65082e-10 -2.22167 -0.733487 0.20892 -2.03217e-16 0.0 -3.88251e-19 -6.88654 -14.5417 -5.29384 -0.25613 35.5318 0.740198 -8.02342 -10.9093 -25.4122 2.03217e-16 0.0 3.88251e-19 0.330925 -11.3399 -2.67973 0.13669 28.2386 -0.461759 3.52928 -8.52263 13.9357
-0.790977 83.6269 -165.247 1.3937 1.2987 0.052 -0.279683 7.01011 -8.88045 1.41547 -13.4854 -2.43899 8.92284 -7.02745 0.76239 -14.9332 17.6166 0.0512897 -0.0 0.0 0.0 -0.0 0.0 0.0 2.24837e-14 -7.05669e-15 -4.22759e-14 85.5217 7.20966 -9.1279 -9.29045 -3.64328 16.5498 -0.0672799 7.264 1.02655 3.50392e-10 -1.19132e-09 -5.21139e-10 6.04458e-10 -2.06221e-09 -9.03969e-10 3.50398e-10 -1.19132e-09 -5.21149e-10 7.73091 5.47488 0.417314 3.50391e-10 -1.19132e-09 -5.2114e-10 2.90554 0.965183 0.102902 3.50392e-10 -1.19132e-09 -5.21138e-10 10.2786 0.731801 0.0259123 3.50384e-10 -1.19132e-09 -5.21129e-10 2.22167 -0.733487 -0.20892 2.2586e-14 -7.05642e-15 -4.23753e-14 -88.6135 16.673 11.7003 14.1189 -6.85182 -26.0268 0.120681 -9.58497 1.36066 -3.84319e-10 8.98374e-10 -5.13618e-10 -6.59668e-10 1.56374e-09 -8.92563e-10 -3.8432e-10 8.98376e-10 -5.13616e-10 -7.73091 5.47488 -0.417314 -3.84317e-10 8.98372e-10 -5.13619e-10 -2.90554 0.965183 -0.102902 -3.84319e-10 8.98372e-10 -5.13619e-10 -10.2786 0.731801 -0.0259123 -3.84311e-10 8.98375e-10 -5.13629e-10 -2.22167 -0.733487 0.20892 -2.03217e-16 0.0 -3.88251e-19 -6.78795 -14.562 -5.26697 -0.249438 35.2499 0.733117 -7.97754 -10.874 -25.3163 2.03217e-16 0.0 3.88251e-19 0.408522 -11.4047 -2.52497 0.133928 28.0047 -0.455929 3.45478 -8.45244 13.6877
-0.835839 83.6306 -165.234 1.3942 1.3618 0.2102 -0.226551 6.58781 -8.9079 1.32226 -13.1356 -2.45194 8.67935 -6.77035 0.911147 -14.5421 17.0779 0.404418 -0.0 0.0 0.0 -0.0 0.0 0.0 7.12822e-16 -2.34686e-14 -6.48694e-14 82.5385 8.20073 -9.14591 -9.17502 -3.62569 16.2906 -0.0464929 6.14208 0.866508 5.76573e-10 -1.53356e-09 -5.11598e-10 9.95454e-10 -2.65446e-09 -8.89136e-10 5.76576e-10 -1.53356e-09 -5.1161e-10 7.73091 5.47488 0.417314 5.76572e-10 -1.53356e-09 -5.11598e-10 2.90554 0.965183 0.102902 5.76573e-10 -1.53356e-09 -5.11596e-10 10.2786 0.731801 0.0259123 5.76564e-10 -1.53355e-09 -5.11588e-10 2.22167 -0.733487 -0.20892 8.09949e-16 -2.34686e-14 -6.49898e-14 -85.4633 16.1638 11.5749 13.8549 -6.76463 -25.3491 0.111128 -9.36006 1.32769 -6.65594e-11 1.38133e-09 -7.17309e-10 -1.08554e-10 2.40174e-09 -1.24379e-09 -6.65614e-11 1.38133e-09 -7.17304e-10 -7.73091 5.47488 -0.417314 -6.65583e-11 1.38133e-09 -7.17309e-10 -2.90554 0.965183 -0.102902 -6.65604e-11 1.38133e-09 -7.17309e-10 -10.2786 0.731801 -0.0259123 -6.65527e-11 1.38133e-09 -7.17319e-10 -2.22167 -0.733487 0.20892 -2.03217e-16 0.0 -3.88251e-19 -6.43858 -14.2407 -5.08939 -0.219094 33.9164 0.693588 -7.53252 -10.4905 -24.4449 2.03217e-16 0.0 3.88251e-19 0.479175 -11.2419 -2.28405 0.119831 26.9659 -0.432097 3.21614 -8.07123 13.0072
